<svg version="1.0" xmlns="http://www.w3.org/2000/svg"
 width="500.000000pt" height="500.000000pt" viewBox="0 0 500.000000 500.000000"
 preserveAspectRatio="xMidYMid meet">

<g transform="translate(0.000000,500.000000) scale(0.100000,-0.100000)"
fill="#000000" stroke="none">
<path d="M2330 3638 c-107 -10 -240 -42 -357 -87 -87 -34 -261 -133 -308 -176
-95 -87 -159 -151 -158 -157 1 -3 -5 -12 -14 -20 -14 -11 -16 -11 -8 2 4 8 4
12 0 7 -15 -13 -17 -49 -3 -40 7 4 4 -6 -7 -22 -10 -17 -27 -45 -36 -63 -10
-18 -23 -40 -30 -48 -6 -8 -10 -17 -7 -19 2 -2 18 13 35 35 63 83 146 170 160
170 9 0 34 16 57 36 59 50 64 54 76 54 5 0 10 5 10 12 0 6 3 8 6 5 4 -4 19 2
33 12 14 9 42 24 61 31 59 24 80 37 72 45 -4 5 -2 5 4 2 6 -4 30 2 52 13 23
11 50 20 61 20 11 0 22 4 25 9 8 12 120 33 140 25 11 -4 16 -2 14 7 -3 12 18
19 97 33 11 2 38 8 60 14 48 13 145 13 145 1 0 -5 5 -9 11 -9 5 0 8 4 5 9 -3
4 7 6 22 3 19 -3 24 -1 17 6 -5 6 -52 12 -102 13 -51 1 -93 5 -93 9 0 13 163
21 222 11 75 -13 109 -31 55 -29 -55 2 -54 -7 3 -22 28 -8 50 -18 50 -22 0 -5
-8 -7 -17 -5 -56 16 -74 17 -68 7 5 -8 -10 -9 -50 -5 -40 5 -55 4 -51 -4 4 -5
26 -10 49 -10 23 0 66 -6 95 -14 40 -11 61 -12 81 -4 34 13 63 3 55 -18 -5
-11 -2 -14 12 -8 13 5 15 3 9 -7 -6 -10 -3 -12 13 -8 12 4 20 2 16 -3 -5 -9
12 -13 56 -11 17 0 19 -1 7 -5 -13 -3 7 -19 70 -55 48 -28 97 -59 109 -69 11
-10 26 -19 32 -19 7 0 12 -4 12 -8 0 -5 12 -15 27 -23 15 -8 59 -47 99 -86 64
-66 97 -91 78 -62 -16 27 36 -13 57 -43 13 -18 26 -35 30 -38 4 -3 11 -18 14
-33 4 -15 11 -27 15 -27 5 0 11 -13 15 -30 4 -16 11 -30 16 -30 5 0 9 -9 9
-19 0 -11 5 -23 11 -27 6 -3 9 -19 7 -35 -3 -15 -1 -26 4 -23 10 6 22 -42 14
-61 -3 -9 -2 -13 3 -10 6 3 12 -14 15 -37 3 -24 10 -85 16 -136 7 -50 9 -111
6 -135 -5 -37 -5 -39 5 -17 7 14 11 40 10 58 -2 24 2 32 14 32 14 0 15 9 10
60 -3 33 -7 87 -10 119 -4 43 -2 60 7 63 28 10 46 -36 53 -132 4 -52 9 -104
12 -114 5 -18 6 -18 19 5 16 29 18 21 4 -16 -5 -14 -14 -23 -20 -20 -6 4 -10
-8 -10 -29 0 -22 5 -36 13 -36 7 -1 6 -5 -5 -14 -9 -7 -25 -41 -34 -77 -10
-35 -20 -68 -24 -72 -4 -4 -5 35 -3 88 2 65 0 94 -7 90 -5 -3 -10 -15 -10 -26
0 -13 -6 -19 -17 -17 -15 2 -19 -7 -24 -47 -3 -27 -14 -72 -22 -100 -21 -61
-20 -60 -1 -44 14 11 15 9 8 -27 -9 -50 -58 -146 -95 -189 -16 -18 -29 -38
-29 -45 0 -7 14 4 30 25 17 21 39 45 50 52 18 12 19 12 13 -4 -56 -153 -251
-335 -458 -428 -33 -15 -77 -36 -97 -47 -21 -10 -38 -17 -38 -14 0 3 -20 -3
-45 -14 -25 -11 -45 -17 -45 -15 0 2 -19 -2 -41 -10 -46 -17 -72 -20 -51 -6 7
4 15 17 16 27 2 11 11 19 22 20 29 2 64 14 64 23 0 5 -30 1 -66 -7 -45 -11
-60 -18 -47 -23 14 -5 11 -8 -16 -14 -23 -5 -36 -3 -41 5 -6 9 -9 9 -15 0 -4
-7 -18 -9 -37 -5 -17 4 -28 3 -25 -2 8 -13 -121 -18 -258 -9 -113 7 -163 15
-290 47 -195 49 -326 129 -485 297 -107 112 -113 120 -104 134 4 6 3 9 -2 5
-5 -3 -18 1 -29 9 -10 8 -16 14 -12 14 4 0 -1 16 -12 35 -20 38 -71 91 -83 87
-5 -1 -8 2 -8 8 0 5 -4 10 -10 10 -17 0 -11 -19 31 -103 159 -316 464 -544
829 -618 195 -40 476 -37 655 7 142 35 303 105 392 170 72 52 173 158 160 166
-8 5 -4 8 10 8 26 0 78 63 67 81 -4 7 -3 9 4 5 6 -4 17 4 23 16 l13 23 6 -25
c5 -23 9 -20 52 40 80 113 144 257 175 394 22 101 22 346 -1 451 -20 92 -68
216 -120 310 -155 276 -491 515 -831 590 -43 10 -80 14 -82 9 -2 -5 -30 -7
-63 -6 -39 3 -58 7 -53 14 3 7 1 8 -6 4 -17 -11 -111 -15 -111 -5 0 4 17 10
38 12 34 3 33 4 -8 4 -25 0 -88 -4 -140 -9z m640 -243 c14 -8 21 -14 15 -14
-5 0 -21 6 -35 14 -14 8 -20 14 -15 14 6 0 21 -6 35 -14z m76 -51 c18 -14 18
-14 -6 -3 -31 14 -36 19 -24 19 6 0 19 -7 30 -16z m89 -44 c3 -6 -1 -7 -9 -4
-18 7 -21 14 -7 14 6 0 13 -4 16 -10z m70 -58 c-3 -3 -11 0 -18 7 -9 10 -8 11
6 5 10 -3 15 -9 12 -12z m55 -40 c13 -11 11 -12 -10 -4 -14 5 -26 18 -28 28
-2 17 -1 17 11 4 7 -8 19 -21 27 -28z m110 -69 c0 -10 -4 -14 -8 -8 -4 6 -11
13 -16 18 -5 4 -2 7 7 7 10 0 17 -8 17 -17z m135 -115 c46 -64 85 -139 85
-162 0 -12 7 -43 15 -71 18 -57 7 -50 -21 15 -10 25 -29 60 -41 79 -13 19 -23
39 -23 45 0 12 -21 53 -51 103 -31 50 -1 42 36 -9z m72 -335 c-3 -10 -5 -2 -5
17 0 19 2 27 5 18 2 -10 2 -26 0 -35z m90 -385 c-3 -8 -6 -5 -6 6 -1 11 2 17
5 13 3 -3 4 -12 1 -19z m-71 -127 c-9 -16 -13 -31 -11 -33 7 -6 -32 -85 -45
-93 -6 -4 -4 10 5 32 10 21 24 57 32 81 8 23 19 42 24 42 5 0 3 -13 -5 -29z
m-64 -250 c-4 -10 -7 -11 -10 -3 -2 7 -9 9 -14 6 -6 -4 -8 -3 -5 3 10 16 36
11 29 -6z m-1307 -480 l40 -9 -40 0 c-22 0 -49 3 -60 8 l-20 9 20 0 c11 0 38
-4 60 -8z m118 -18 c-7 -2 -19 -2 -25 0 -7 3 -2 5 12 5 14 0 19 -2 13 -5z"/>
<path d="M2430 3520 l-45 -7 52 -1 c28 -1 55 3 58 8 7 11 4 11 -65 0z"/>
<path d="M2750 3460 c0 -5 4 -10 9 -10 6 0 13 5 16 10 3 6 -1 10 -9 10 -9 0
-16 -4 -16 -10z"/>
<path d="M2270 3223 c0 -10 5 -25 10 -33 8 -12 10 -9 10 12 0 15 -4 30 -10 33
-5 3 -10 -2 -10 -12z"/>
<path d="M2505 3203 c-48 -64 -44 -74 5 -13 17 22 28 40 23 40 -4 0 -17 -13
-28 -27z"/>
<path d="M2030 3148 c18 -27 35 -46 38 -44 5 6 -32 59 -55 77 -9 8 -2 -7 17
-33z"/>
<path d="M1423 3133 c-80 -104 -149 -243 -183 -368 -16 -59 -23 -116 -25 -215
-3 -130 -3 -131 5 -38 14 170 64 361 125 478 18 36 38 64 44 63 6 -2 8 4 4 13
-3 9 0 14 8 12 9 -2 13 4 11 16 -2 10 1 15 7 12 5 -3 19 7 30 23 32 44 7 47
-26 4z m21 2 c-9 -14 -18 -25 -21 -25 -5 0 5 18 20 38 17 22 18 13 1 -13z"/>
<path d="M2640 3048 c-19 -5 -39 -14 -45 -19 -5 -5 12 -3 39 5 26 8 51 17 54
20 7 8 -6 6 -48 -6z"/>
<path d="M1875 2974 c21 -8 135 -20 135 -14 0 4 -24 10 -52 14 -58 6 -99 7
-83 0z"/>
<path d="M2204 2965 c-4 -9 -2 -27 5 -41 16 -35 14 -42 -11 -46 -31 -4 -35
-28 -5 -28 14 0 28 -7 32 -17 13 -33 18 -178 7 -216 l-11 -38 66 3 65 3 -1
116 c-2 128 4 173 24 165 7 -2 21 2 32 9 26 19 4 42 -25 26 -31 -16 -33 -14
-26 23 8 43 -2 62 -23 45 -9 -8 -12 -21 -8 -36 4 -18 1 -23 -15 -23 -18 0 -20
4 -14 35 5 28 3 35 -10 35 -16 0 -18 -5 -20 -44 -2 -29 -26 -32 -26 -3 0 32
-27 57 -36 32z m116 -68 c24 6 30 -15 19 -68 -4 -24 -8 -88 -9 -141 l0 -98
-40 0 -40 0 0 113 c0 75 -5 121 -14 138 -7 15 -11 31 -7 35 13 18 46 31 60 24
8 -4 22 -5 31 -3z"/>
<path d="M2594 2815 c17 -13 12 -14 -44 -17 -60 -3 -63 -4 -90 -43 -17 -23
-32 -60 -36 -87 l-6 -48 66 0 c65 0 66 0 66 -27 -1 -16 -18 -107 -39 -203 -36
-168 -38 -174 -49 -140 -14 42 -116 158 -125 143 -3 -5 18 -39 49 -74 30 -35
57 -74 61 -87 11 -47 -4 -103 -38 -138 -94 -97 -281 -53 -305 71 -9 50 11 97
72 165 30 33 54 65 54 69 0 5 20 6 44 4 24 -3 51 -1 59 3 10 6 -8 10 -54 11
-38 1 -69 -2 -69 -7 0 -5 -24 -37 -54 -70 -64 -71 -81 -113 -71 -176 12 -84
91 -144 190 -144 64 0 108 16 148 54 27 25 33 26 137 26 l109 0 10 53 c6 28
31 144 54 257 l43 205 57 3 c68 4 66 13 32 -144 -30 -137 -31 -205 -6 -259 23
-51 54 -78 116 -106 41 -18 61 -21 123 -16 138 10 228 77 269 199 18 50 73
293 109 480 5 24 2 27 -28 30 -18 2 -67 2 -109 0 l-76 -3 -42 -202 c-23 -111
-47 -219 -53 -239 -14 -47 -49 -81 -80 -76 -36 5 -34 48 10 262 22 105 43 206
46 224 l6 32 -248 0 c-195 1 -252 4 -272 15 -34 19 -62 20 -36 0z m312 -71
c-4 -15 -10 -39 -13 -55 -5 -29 -6 -29 -79 -29 l-73 0 -15 -72 c-9 -40 -33
-156 -54 -258 l-39 -185 -66 -3 c-50 -2 -67 0 -67 10 0 14 82 408 98 471 6 20
6 37 1 37 -4 0 -24 14 -42 30 -19 17 -40 30 -46 30 -20 0 -12 -19 16 -37 l27
-18 -44 -6 c-25 -4 -47 -5 -48 -4 -2 2 1 29 8 59 l11 56 216 0 215 0 -6 -26z
m194 18 c0 -4 -17 -88 -39 -187 -53 -246 -55 -261 -41 -296 15 -36 48 -46 100
-30 56 17 73 53 115 246 21 94 43 193 49 220 l12 50 67 3 c37 2 67 1 67 -2 0
-3 -20 -101 -45 -218 -54 -255 -84 -326 -155 -370 -92 -57 -233 -58 -293 -2
-71 65 -77 125 -32 314 15 63 35 151 45 195 10 44 19 81 19 83 2 6 131 1 131
-6z"/>
<path d="M1556 2472 c-38 -180 -71 -338 -74 -351 l-5 -23 174 4 c150 4 182 7
230 26 75 30 138 87 176 159 40 76 54 137 54 238 0 90 -18 143 -68 197 -14 14
-23 30 -20 35 3 4 -5 9 -16 9 -12 1 -40 9 -62 17 -29 12 -77 16 -180 16 l-140
1 -69 -328z m382 279 c23 -12 23 -13 5 -26 -24 -17 -11 -30 16 -15 31 16 55
-1 85 -62 54 -108 21 -305 -66 -399 -75 -81 -172 -111 -341 -107 l-114 3 63
299 c35 165 66 306 69 314 7 19 248 13 283 -7z"/>
<path d="M1770 2658 c0 -2 -20 -94 -43 -205 l-43 -203 43 0 c92 0 158 57 187
159 19 68 21 159 4 196 -15 34 -56 55 -108 55 -22 0 -40 -1 -40 -2z m85 -50
c74 -33 40 -243 -49 -301 -27 -18 -66 -23 -66 -9 0 12 59 293 65 310 5 15 17
15 50 0z"/>
<path d="M2220 2518 c0 -11 112 -10 129 1 9 6 -13 8 -58 7 -39 0 -71 -4 -71
-8z"/>
<path d="M2285 2460 c-66 -5 -68 -6 -32 -14 41 -9 107 0 107 14 0 6 -1 9 -2 8
-2 -1 -34 -4 -73 -8z"/>
<path d="M1213 2375 c0 -22 2 -30 4 -17 2 12 2 30 0 40 -3 9 -5 -1 -4 -23z"/>
<path d="M2190 2299 c0 -5 5 -7 10 -4 6 3 10 8 10 11 0 2 -4 4 -10 4 -5 0 -10
-5 -10 -11z"/>
<path d="M2230 2300 c0 -5 5 -10 10 -10 6 0 10 5 10 10 0 6 -4 10 -10 10 -5 0
-10 -4 -10 -10z"/>
<path d="M2206 2263 c-11 -11 -6 -23 9 -23 8 0 15 4 15 9 0 13 -16 22 -24 14z"/>
<path d="M1231 2234 c0 -11 3 -14 6 -6 3 7 2 16 -1 19 -3 4 -6 -2 -5 -13z"/>
<path d="M2160 2235 c0 -8 7 -15 15 -15 8 0 15 7 15 15 0 8 -7 15 -15 15 -8 0
-15 -7 -15 -15z"/>
<path d="M2215 2220 c-22 -11 -52 -20 -67 -20 -22 0 -28 -5 -28 -22 0 -59 81
-127 151 -128 72 0 143 49 160 112 12 48 8 55 -38 61 -115 17 -138 16 -178 -3z"/>
<path d="M1361 2116 c-1 -29 32 -114 56 -144 l23 -27 -21 50 c-11 28 -26 64
-34 80 -7 17 -15 37 -18 45 -4 11 -6 10 -6 -4z"/>
<path d="M3145 1669 c-4 -6 -4 -13 -1 -16 3 -4 6 -1 6 5 0 6 8 13 18 15 15 4
15 5 0 6 -9 0 -20 -4 -23 -10z"/>
<path d="M3066 1613 c-6 -14 -5 -15 5 -6 7 7 10 15 7 18 -3 3 -9 -2 -12 -12z"/>
<path d="M2965 1568 c-33 -17 -64 -31 -70 -32 -16 -3 -51 -25 -40 -26 14 0
156 60 180 76 35 25 -6 14 -70 -18z"/>
</g>
</svg>
